<svg xmlns="http://www.w3.org/2000/svg" viewBox="0 0 32 32" fill="none">
  <!-- Lucide ShoppingBag icon scaled to 32x32 -->
  <g transform="translate(4, 4)" stroke="#1a1a1a" stroke-width="1" stroke-linecap="round" stroke-linejoin="round" fill="none">
    <path d="M16 10a4 4 0 0 1-8 0"/>
    <path d="M3.103 6.034h17.794"/>
    <path d="M3.4 5.467a2 2 0 0 0-.4 1.2V20a2 2 0 0 0 2 2h14a2 2 0 0 0 2-2V6.667a2 2 0 0 0-.4-1.2l-2-2.667A2 2 0 0 0 17 2H7a2 2 0 0 0-1.6.8z"/>
  </g>
  <!-- Badge with "2" -->
  <circle cx="25" cy="7" r="7" fill="#1a1a1a"/>
  <text x="25" y="10.5" text-anchor="middle" font-family="Arial, Helvetica, sans-serif" font-weight="700" font-size="10" fill="white">2</text>
</svg>
