<svg xmlns="http://www.w3.org/2000/svg" viewBox="0 0 780 500">
  <rect width="780" height="500" rx="40" fill="#000"/>
  <!-- Apple logo -->
  <path d="M273.8 170.3c7.6-9.8 12.8-23.2 11.4-36.8-11 .5-24.4 7.4-32.3 16.8-7.1 8.2-13.3 21.5-11.6 34.2 12.3 1 24.8-6.2 32.5-14.2zm11.3 18.2c-18-.9-33.3 10.2-41.8 10.2-8.6 0-21.7-9.7-35.8-9.4-18.4.3-35.4 10.7-44.9 27.2-19.2 33.1-5.2 82.1 13.7 109 9.2 13.3 20.1 28.2 34.5 27.7 13.8-.5 19.1-8.9 35.8-8.9 16.7 0 21.5 8.9 36.1 8.7 14.9-.3 24.3-13.5 33.4-26.9 10.4-15.4 14.7-30.3 14.9-31.1-.3-.1-28.7-11-29-43.7-.3-27.3 22.3-40.4 23.3-41.1-12.7-18.8-32.5-20.9-39.5-21.4-.5-.1-1.1-.2-1.7-.2h1z" fill="#fff" transform="translate(60, -10) scale(0.75)"/>
  <!-- Pay text -->
  <text x="470" y="282" font-family="'SF Pro Display', 'Helvetica Neue', Arial, sans-serif" font-size="120" font-weight="600" fill="#fff">Pay</text>
</svg>
