<svg xmlns="http://www.w3.org/2000/svg" viewBox="0 0 780 500">
  <rect width="780" height="500" rx="40" fill="#fff" stroke="#e0e0e0" stroke-width="2"/>
  <!-- Google G -->
  <path d="M310.6 218.3v25.4h36c-1.5 9.7-5.7 16.8-12 21.9-7.6 6.2-17.3 9.7-30.2 9.7-24.1 0-44.3-19.4-44.3-43.5s20.2-43.5 44.3-43.5c13 0 22.5 5.1 29.5 11.8l18-18c-10.9-10.2-25.2-16.4-47.5-16.4-38.3 0-70.5 31.1-70.5 66.1s32.2 66.1 70.5 66.1c20.7 0 36.3-6.8 48.5-19.5 12.5-12.5 16.4-30.2 16.4-44.4 0-4.4-.4-8.5-1-11.8h-57.7z" fill="#4285F4"/>
  <path d="M310.6 218.3v25.4h36c-1.5 9.7-5.7 16.8-12 21.9l19.3 15c11.3-10.4 17.8-25.7 17.8-42.6 0-4.4-.4-8.5-1-11.8h-60.1z" fill="#4285F4"/>
  <path d="M258.1 241.8c-1.7-5.1-2.7-10.5-2.7-16.1s1-11 2.7-16.1l-20.6-16c-4.7 9.4-7.4 20-7.4 32.1s2.7 22.7 7.4 32.1l20.6-16z" fill="#FBBC05"/>
  <path d="M306.4 175.3c13 0 22.5 5.1 29.5 11.8l18-18c-10.9-10.2-25.2-16.4-47.5-16.4-28.8 0-53.5 16.5-65.4 40.5l20.6 16c5.5-16.5 20.9-33.9 44.8-33.9z" fill="#EA4335"/>
  <path d="M306.4 280.3c-23.9 0-39.3-17.4-44.8-33.9l-20.6 16c11.9 24 36.6 40.5 65.4 40.5 17.6 0 34.4-6 46.9-17.2l-19.3-15c-7.4 5.6-17.1 9.6-27.6 9.6z" fill="#34A853"/>
  <!-- Pay text -->
  <text x="400" y="270" font-family="'Google Sans', 'Product Sans', Arial, sans-serif" font-size="96" font-weight="500" fill="#5F6368">Pay</text>
</svg>
