<svg xmlns="http://www.w3.org/2000/svg" viewBox="0 0 780 500" width="780" height="500">
  <rect width="780" height="500" rx="40" fill="#FFB3C7"/>
  <!-- Klarna text -->
  <!-- K -->
  <path d="M155 170h28v160h-28z" fill="#0A0B09"/>
  <path d="M183 170c0 38.5-15.5 73.5-40.5 99l72 61h-36.5l-65-55v55h-28V170h28v50l59.5-50h36.5l-54 45.5c16-20 26-44.5 28-50.5z" fill="#0A0B09" transform="translate(20,0)"/>
  <!-- l -->
  <path d="M260 170h26v160h-26z" fill="#0A0B09"/>
  <!-- a -->
  <path d="M320 232c-13 0-23.5 4-31 12v-10h-25v96h26v-50c0-18 10.5-27 25-27 15.5 0 24 9 24 27v50h26v-55c0-28-18-43-45-43z" fill="#0A0B09" transform="translate(-5,0)"/>
  <!-- r -->
  <path d="M395 234v-10h-25v106h26v-48c0-20 13-30 30-30h2v-25c-15 0-26 5.5-33 17z" fill="#0A0B09" transform="translate(5,0)"/>
  <!-- n -->
  <path d="M455 232c-13 0-23.5 4-31 12v-10h-25v96h26v-50c0-18 10.5-27 25-27 15.5 0 24 9 24 27v50h26v-55c0-28-18-43-45-43z" fill="#0A0B09" transform="translate(15,0)"/>
  <!-- a -->
  <path d="M555 232c-13 0-23.5 4-31 12v-10h-25v96h26v-50c0-18 10.5-27 25-27 15.5 0 24 9 24 27v50h26v-55c0-28-18-43-45-43z" fill="#0A0B09" transform="translate(30,0)"/>
  <!-- Dot (Klarna's signature dot) -->
  <circle cx="640" cy="315" r="16" fill="#0A0B09"/>
</svg>
