<svg xmlns="http://www.w3.org/2000/svg" viewBox="0 0 780 500" width="780" height="500">
  <rect width="780" height="500" rx="40" fill="#fff"/>
  <path d="M293.2 348.7l33.4-195.8h53.4l-33.4 195.8h-53.4z" fill="#1a1f71"/>
  <path d="M541.3 157.1c-10.6-4-27.2-8.3-47.9-8.3-52.8 0-90 26.6-90.2 64.7-.3 28.2 26.5 43.9 46.8 53.3 20.8 9.6 27.8 15.8 27.7 24.4-.1 13.2-16.6 19.2-32 19.2-21.4 0-32.7-3-50.3-10.2l-6.9-3.1-7.5 43.8c12.5 5.5 35.6 10.2 59.6 10.5 56.2 0 92.6-26.3 93-67.1.2-22.3-14-39.4-44.8-53.4-18.6-9.1-30.1-15.2-30-24.4 0-8.2 9.7-16.9 30.6-16.9 17.5-.3 30.1 3.5 40 7.5l4.8 2.3 7.1-42.3z" fill="#1a1f71"/>
  <path d="M640.8 152.9h-41.3c-12.8 0-22.4 3.5-28 16.3l-79.3 179.5h56.1s9.2-24.1 11.2-29.4c6.1 0 60.7.1 68.5.1 1.6 6.9 6.5 29.3 6.5 29.3h49.6l-43.3-195.8zm-65.8 126.3c4.4-11.3 21.3-54.7 21.3-54.7-.3.5 4.4-11.3 7.1-18.7l3.6 16.9s10.2 46.8 12.4 56.5h-44.4z" fill="#1a1f71"/>
  <path d="M247.1 152.9l-52.3 133.5-5.6-27.1c-9.7-31.3-40-65.2-73.9-82.2l47.8 171.4 56.5-.1 84.1-195.5h-56.6z" fill="#1a1f71"/>
  <path d="M146.9 152.9H60.8l-.7 4c67 16.2 111.3 55.4 129.7 102.5l-18.7-90.1c-3.2-12.4-12.7-16-24.2-16.4z" fill="#f7a600"/>
</svg>
